<svg id="visual" viewBox="0 0 960 540" width="960" height="540" xmlns="http://www.w3.org/2000/svg" xmlns:xlink="http://www.w3.org/1999/xlink" version="1.1"><rect x="0" y="0" width="960" height="540" fill="#001220"></rect><defs><linearGradient id="grad1_0" x1="43.8%" y1="0%" x2="100%" y2="100%"><stop offset="14.444444444444446%" stop-color="#fbae3c" stop-opacity="1"></stop><stop offset="85.55555555555554%" stop-color="#fbae3c" stop-opacity="1"></stop></linearGradient></defs><defs><linearGradient id="grad1_1" x1="43.8%" y1="0%" x2="100%" y2="100%"><stop offset="14.444444444444446%" stop-color="#fbae3c" stop-opacity="1"></stop><stop offset="85.55555555555554%" stop-color="#e1685e" stop-opacity="1"></stop></linearGradient></defs><defs><linearGradient id="grad1_2" x1="43.8%" y1="0%" x2="100%" y2="100%"><stop offset="14.444444444444446%" stop-color="#96446e" stop-opacity="1"></stop><stop offset="85.55555555555554%" stop-color="#e1685e" stop-opacity="1"></stop></linearGradient></defs><defs><linearGradient id="grad1_3" x1="43.8%" y1="0%" x2="100%" y2="100%"><stop offset="14.444444444444446%" stop-color="#96446e" stop-opacity="1"></stop><stop offset="85.55555555555554%" stop-color="#3d3056" stop-opacity="1"></stop></linearGradient></defs><defs><linearGradient id="grad1_4" x1="43.8%" y1="0%" x2="100%" y2="100%"><stop offset="14.444444444444446%" stop-color="#001220" stop-opacity="1"></stop><stop offset="85.55555555555554%" stop-color="#3d3056" stop-opacity="1"></stop></linearGradient></defs><defs><linearGradient id="grad2_0" x1="0%" y1="0%" x2="56.3%" y2="100%"><stop offset="14.444444444444446%" stop-color="#fbae3c" stop-opacity="1"></stop><stop offset="85.55555555555554%" stop-color="#fbae3c" stop-opacity="1"></stop></linearGradient></defs><defs><linearGradient id="grad2_1" x1="0%" y1="0%" x2="56.3%" y2="100%"><stop offset="14.444444444444446%" stop-color="#e1685e" stop-opacity="1"></stop><stop offset="85.55555555555554%" stop-color="#fbae3c" stop-opacity="1"></stop></linearGradient></defs><defs><linearGradient id="grad2_2" x1="0%" y1="0%" x2="56.3%" y2="100%"><stop offset="14.444444444444446%" stop-color="#e1685e" stop-opacity="1"></stop><stop offset="85.55555555555554%" stop-color="#96446e" stop-opacity="1"></stop></linearGradient></defs><defs><linearGradient id="grad2_3" x1="0%" y1="0%" x2="56.3%" y2="100%"><stop offset="14.444444444444446%" stop-color="#3d3056" stop-opacity="1"></stop><stop offset="85.55555555555554%" stop-color="#96446e" stop-opacity="1"></stop></linearGradient></defs><defs><linearGradient id="grad2_4" x1="0%" y1="0%" x2="56.3%" y2="100%"><stop offset="14.444444444444446%" stop-color="#3d3056" stop-opacity="1"></stop><stop offset="85.55555555555554%" stop-color="#001220" stop-opacity="1"></stop></linearGradient></defs><g transform="translate(960, 0)"><path d="M0 316C-35.4 313.4 -70.8 310.9 -95.2 292.9C-119.5 275 -132.7 241.6 -166.3 229C-200 216.3 -253.9 224.3 -284 206.3C-314 188.3 -320.1 144.4 -325.3 105.7C-330.4 67 -334.7 33.5 -339 0L0 0Z" fill="#18223c"></path><path d="M0 252.8C-28.3 250.8 -56.7 248.7 -76.1 234.3C-95.6 220 -106.2 193.3 -133.1 183.2C-160 173 -203.1 179.4 -227.2 165.1C-251.2 150.7 -256.1 115.5 -260.2 84.5C-264.4 53.6 -267.8 26.8 -271.2 0L0 0Z" fill="#683a67"></path><path d="M0 189.6C-21.3 188.1 -42.5 186.5 -57.1 175.8C-71.7 165 -79.6 145 -99.8 137.4C-120 129.8 -152.4 134.6 -170.4 123.8C-188.4 113 -192 86.6 -195.2 63.4C-198.3 40.2 -200.8 20.1 -203.4 0L0 0Z" fill="#c0526a"></path><path d="M0 126.4C-14.2 125.4 -28.3 124.4 -38.1 117.2C-47.8 110 -53.1 96.6 -66.5 91.6C-80 86.5 -101.6 89.7 -113.6 82.5C-125.6 75.3 -128 57.8 -130.1 42.3C-132.2 26.8 -133.9 13.4 -135.6 0L0 0Z" fill="#f6884d"></path><path d="M0 63.2C-7.1 62.7 -14.2 62.2 -19 58.6C-23.9 55 -26.5 48.3 -33.3 45.8C-40 43.3 -50.8 44.9 -56.8 41.3C-62.8 37.7 -64 28.9 -65.1 21.1C-66.1 13.4 -66.9 6.7 -67.8 0L0 0Z" fill="#fbae3c"></path></g><g transform="translate(0, 540)"><path d="M0 -307C31 -304.2 62.1 -301.5 97.3 -299.6C132.6 -297.7 172 -296.6 204.5 -281.5C237.1 -266.5 262.6 -237.4 284 -206.3C305.3 -175.3 322.5 -142.2 331 -107.5C339.4 -72.8 339.2 -36.4 339 0L0 0Z" fill="#18223c"></path><path d="M0 -245.6C24.8 -243.4 49.7 -241.2 77.9 -239.7C106.1 -238.1 137.6 -237.3 163.6 -225.2C189.6 -213.2 210.1 -189.9 227.2 -165.1C244.3 -140.2 258 -113.8 264.8 -86C271.6 -58.3 271.4 -29.1 271.2 0L0 0Z" fill="#683a67"></path><path d="M0 -184.2C18.6 -182.5 37.3 -180.9 58.4 -179.7C79.6 -178.6 103.2 -178 122.7 -168.9C142.2 -159.9 157.6 -142.4 170.4 -123.8C183.2 -105.2 193.5 -85.3 198.6 -64.5C203.7 -43.7 203.5 -21.8 203.4 0L0 0Z" fill="#c0526a"></path><path d="M0 -122.8C12.4 -121.7 24.8 -120.6 38.9 -119.8C53 -119.1 68.8 -118.6 81.8 -112.6C94.8 -106.6 105 -94.9 113.6 -82.5C122.1 -70.1 129 -56.9 132.4 -43C135.8 -29.1 135.7 -14.6 135.6 0L0 0Z" fill="#f6884d"></path><path d="M0 -61.4C6.2 -60.8 12.4 -60.3 19.5 -59.9C26.5 -59.5 34.4 -59.3 40.9 -56.3C47.4 -53.3 52.5 -47.5 56.8 -41.3C61.1 -35.1 64.5 -28.4 66.2 -21.5C67.9 -14.6 67.8 -7.3 67.8 0L0 0Z" fill="#fbae3c"></path></g></svg>